<svg width="95" height="46" viewBox="0 0 387 186" fill="none" xmlns="http://www.w3.org/2000/svg">
<path d="M386.131 181.43V157.796C386.131 155.811 384.52 154.238 382.534 154.238C382.272 154.238 382.009 154.238 381.785 154.238C337.907 154.126 302.498 118.319 302.498 74.4597V69.3659C302.498 67.7928 301.711 66.4069 300.474 65.5829C299.762 65.096 298.863 64.7964 297.926 64.7964H275.294C272.784 64.7964 270.76 66.819 270.76 69.3284V76.9317C270.76 106.933 282.901 134.088 302.498 153.789C322.244 173.64 349.598 185.925 379.799 185.925C380.323 185.925 380.848 185.925 381.41 185.925C381.635 185.925 381.86 185.925 382.047 185.925H382.084C384.37 185.738 386.131 183.79 386.131 181.43Z" fill="#262D33"/>
<path d="M270.535 178.584L270.46 178.509L269.973 178.022L269.898 177.947L255.659 163.715L194.246 102.326C193.871 101.839 193.759 101.09 194.133 100.416C194.433 99.8168 195.108 99.4797 195.782 99.4797H213.693C214.704 99.4797 215.716 99.4423 216.728 99.3674C225.196 98.7306 232.915 95.4346 239.098 90.3408C247.866 83.0746 253.486 72.0629 253.486 59.7403C253.486 57.1559 253.486 53.373 253.486 53.373V5.95535C253.486 3.44589 251.463 1.42334 248.952 1.42334H226.32C223.81 1.42334 221.786 3.44589 221.786 5.95535V60.9388C221.786 64.6843 218.751 67.7556 214.967 67.7556H177.871C176.859 67.7556 175.848 67.7931 174.836 67.868C154.302 69.4036 138.115 86.5579 138.115 107.495V181.468C138.115 183.978 140.139 186 142.649 186H165.281C167.792 186 169.815 183.978 169.815 181.468V126.971C169.815 126.934 169.815 126.897 169.815 126.859C169.815 125.848 170.639 125.061 171.614 125.061H171.651C172.213 125.061 172.7 125.361 173.038 125.773L175.286 128.02L232.915 185.626C233.252 185.775 233.589 185.925 233.964 186H267.987C270.048 185.551 271.622 183.715 271.622 181.506C271.584 180.382 271.172 179.371 270.535 178.584Z" fill="#262D33"/>
<path d="M194.995 0C194.733 0 194.546 0 194.321 0C193.796 0 193.272 0 192.71 0C162.509 0 135.155 12.2851 115.408 32.1361V28.2034V9.85058V4.56947C115.408 2.20982 113.61 0.299631 111.324 0.0374484H111.287C111.062 0.0374484 110.837 0.0374484 110.65 0.0374484C110.125 0.0374484 109.601 0.0374484 109.038 0.0374484C78.8374 0.0374484 51.4841 12.3226 31.7373 32.1736C12.1404 51.8747 0 79.0669 0 109.031V180.082C0 182.592 2.02339 184.614 4.5339 184.614H27.1659C28.1027 184.614 28.9645 184.315 29.7139 183.828C30.913 183.004 31.7373 181.618 31.7373 180.045V111.503C31.7373 77.269 53.3202 47.942 83.6711 36.6681V109.031V180.082V184.614H88.205H110.837H115.371V180.082V111.54C115.371 67.6806 150.78 31.8739 194.658 31.7616C194.92 31.7616 195.183 31.7616 195.407 31.7616C197.393 31.7616 199.005 30.1885 199.005 28.2034V4.56947C199.08 2.17237 197.281 0.224728 194.995 0Z" fill="#7BB83C"/>
</svg>
